<?xml version="1.0" encoding="UTF-8"?>
<svg id="Layer_1" data-name="Layer 1" xmlns="http://www.w3.org/2000/svg" viewBox="0 0 375.57 375">
  <polygon points="374.82 0 375.57 0 375.57 371.68 0 371.68 0 370.94 374.83 370.94 374.82 0" style="fill: #f5f7f9;"/>
  <g>
    <g>
      <path d="M146.6,167.71c-5.8-1.22-2.78-10.81-1.88-14.83-1.83.16-3.88-.23-5.66-.05-8.83.91-1.37,16.78-11.57,14.88l3.78-19.25,13.46-.04.38,2.98c1.48.36,1.24-2.23,3.9-2.81,1.84-.4,10.01-.49,11.68,0,4.86,1.41,3.14,8.32,2.03,11.72h-13.87l-1.12,1.84c.53,2.42,9.9.16,12.02,1.47l-.03,4.11c-3.83-.54-9.58.74-13.12,0ZM158.97,152.87l-8.52.11-1.14,1.1-.09,2.51h9.75s0-3.71,0-3.71Z" style="fill: #f5f7f9;"/>
      <path d="M222.69,167.71l2.25-14.84-6.01.36c-2.22,1.09-3.12,11.64-3.77,14.44l-5.21.03,2.25-14.84-6.01.36-3.81,14.4-5.17.07,4.45-18.96c.51-.35,11.57-.48,12.4-.31,1.64.33,2.6,2.09,3,2.1.25,0,2.2-1.85,4.49-2.13,5.45-.67,8.82.44,8.7,6.32-.03,1.35-1.98,10.85-2.45,11.73-1.06,1.99-3.1,1.16-5.1,1.25Z" style="fill: #f5f7f9;"/>
      <path d="M170.96,148.42l1.51,13.35,7.48-12.98,5.24-.36,1.52,13.34,7.48-12.99c.89-.34,5.88-1.27,5.25.74l-10.6,18.07-5.77.02-1.98-12.52c-1.42,1.46-5.89,12.13-6.49,12.5-.94.58-4.01-.1-5.38.15l-3.5-19.32h5.25Z" style="fill: #f5f7f9;"/>
      <path d="M122.98,153.62c1.29-7.29-8.26-5.38-12.94-4.46-1.46.8-3.88,12.03-2.84,12.99,1.75,1.61,11.01,1.57,12.61.2s-.03-5.8,6.18-4.28c.33,4.49-2.35,9.11-7.11,9.66-2.55.3-12.55.32-14.46-.56-5.54-2.55-1.58-18.72,2.56-21.6,2.87-1.99,15.09-2.43,18.08-1.05,4.28,1.97,4.47,10.77-2.07,9.1Z" style="fill: #f5f7f9;"/>
      <path d="M249.66,149.89c.06-.05-.2-1.29.5-1.48,1.3-.35,3.31.22,4.76.01l-3.78,19.25c-11.71-.93-24.07,4.54-17.99-12.98,2.29-6.59,5.71-6.99,12.46-6.32,2.09.21,3.88,1.65,4.05,1.52ZM236.93,163.26l9.45-.67,2.23-9-9.44-.36c-1.76,1.04-2.48,7.97-2.24,10.03Z" style="fill: #f5f7f9;"/>
      <path d="M275.91,160.29v2.97h11.99c-.03,1.44.51,3.78-1.23,4.35-6.23-.51-16.47,3.17-16.04-6.17.2-4.29,2.24-12.2,7.19-12.97,9.92-1.55,18.06.68,11.95,11.83h-13.87ZM286.29,156.47c1.01-.63,1.38-3.17-1.01-3.6-1.92-.34-4.6.06-6.62.12l-1.98,2.49c-.32,1.67.74,1.02,1.85,1.1,1.3.09,7.22.23,7.76-.11Z" style="fill: #f5f7f9;"/>
      <path d="M264.66,143.97l-.74,4.44h7.5c-.03,1.45.5,3.79-1.23,4.35l-7.42.81-1.75,8.51c.48,1.99,5.74.94,7.41,1.17l-1.25,4.48c-7.96.19-11.74.57-10.66-8.49.21-1.74,1.63-4.61,1.45-5.91-.04-.26-2.63-.67-1.57-4.47,5.11-.42,3.67-5.65,8.29-4.9Z" style="fill: #f5f7f9;"/>
    </g>
    <g>
      <path d="M196.22,171.55c6.44-1.02,14.38,3.91,15.2,10.56,1.21,9.81-5.48,18.08-13.13,23.41-8.48-5.72-17.82-19.15-10.45-28.92,1.6-2.12,5.78-4.65,8.39-5.06ZM201.47,181.94c-3.7-3.63-10.17,2.45-5.49,5.81,4.29,3.09,8.62-2.75,5.49-5.81Z" style="fill: #f5f7f9;"/>
      <rect x="215.15" y="173.6" width="80.96" height="3.71" style="fill: #e3d60e;"/>
      <rect x="99.7" y="173.6" width="80.21" height="3.71" style="fill: #e3d60e;"/>
      <path d="M211.41,195.86c5.95,1.76,5.36,9.1,1.42,12.9-9.28,8.97-35.8,5.09-31.07-9.98.98-3.12,4.46-4.17,4.17-.39-.12,1.49-1.65,2.51-1.38,4.33,1.49,10.24,28.83,9.46,27.62-1.23-.22-1.92-2.21-3.16-.75-5.63Z" style="fill: #f5f7f9;"/>
      <rect x="128.19" y="181.02" width="50.98" height="2.97" style="fill: #f5f7f9;"/>
      <rect x="215.15" y="182.5" width="50.98" height="2.97" style="fill: #f5f7f9;"/>
      <rect x="215.15" y="190.66" width="17.99" height="3.71" style="fill: #e3d60e;"/>
      <path d="M179.92,189.18v3.71h-16.87c-1.41,0-1.41-3.71,0-3.71h16.87Z" style="fill: #e3d60e;"/>
    </g>
  </g>
</svg>